<?xml version="1.0" encoding="utf-8"?>
<!-- Generator: Adobe Illustrator 23.0.6, SVG Export Plug-In . SVG Version: 6.00 Build 0)  -->
<svg version="1.1" id="Layer_1" xmlns="http://www.w3.org/2000/svg" xmlns:xlink="http://www.w3.org/1999/xlink" x="0px" y="0px"
	 width="169.5px" height="175.8px" viewBox="0 0 169.5 175.8" style="enable-background:new 0 0 169.5 175.8;" xml:space="preserve"
	>
<path style="fill:#B5522B;" d="M17.9,0c-0.1,0.1-0.2,0.2-0.2,0.2c-11.6,11.6-11.6,30.3,0,41.9s30.3,11.6,41.9,0
	c0.1-0.1,0.2-0.2,0.2-0.2L17.9,0z"/>
<path style="fill:#E7A146;" d="M8.9,67.8C8.8,67.9,8.7,68,8.7,68c-11.6,11.6-11.6,30.3,0,41.9s30.3,11.6,41.9,0
	c0.1-0.1,0.2-0.2,0.2-0.2L8.9,67.8z"/>
<path style="fill:#436868;" d="M62.8,125c-0.1,0.1-0.2,0.2-0.2,0.2c-11.6,11.6-11.6,30.3,0,41.9c11.6,11.6,30.3,11.6,41.9,0
	c0.1-0.1,0.2-0.2,0.2-0.2L62.8,125z"/>
<path style="fill:#193E3A;" d="M72.7,55.5c-0.1,0.1-0.2,0.2-0.2,0.2c-11.6,11.6-11.6,30.3,0,41.9s30.3,11.6,41.9,0
	c0.1-0.1,0.2-0.2,0.2-0.2L72.7,55.5z"/>
<path style="fill:#E7A146;" d="M127.6,111.1c-0.1,0.1-0.2,0.2-0.2,0.2c-11.6,11.6-11.6,30.3,0,41.9c11.6,11.6,30.3,11.6,41.9,0
	c0.1-0.1,0.2-0.2,0.2-0.2L127.6,111.1z"/>
</svg>
