<?xml version="1.0" encoding="utf-8"?>
<!-- Generator: Adobe Illustrator 23.0.6, SVG Export Plug-In . SVG Version: 6.00 Build 0)  -->
<svg version="1.1" id="Layer_1" xmlns="http://www.w3.org/2000/svg" xmlns:xlink="http://www.w3.org/1999/xlink" x="0px" y="0px"
	 width="292px" height="146.3px" viewBox="0 0 292 146.3" style="enable-background:new 0 0 292 146.3;" xml:space="preserve">
<path style="fill:#E78746;" d="M0,0c0,0.1,0,0.2,0,0.3c0,80.6,65.4,146,146,146s146-65.4,146-146c0-0.1,0-0.2,0-0.3H0z"/>
<path style="fill:#EDDBC7;" d="M34.4,0c0,0.1,0,0.2,0,0.3c0,61.6,50,111.6,111.6,111.6s111.6-50,111.6-111.6c0-0.1,0-0.2,0-0.3H34.4
	z"/>
<path style="fill:#E7A146;" d="M66,0c0,0.1,0,0.2,0,0.3c0,44.2,35.8,80.1,80.1,80.1s80.1-35.8,80.1-80.1c0-0.1,0-0.2,0-0.3H66z"/>
<path style="fill:#B5522B;" d="M66,0c0,0.1,0,0.2,0,0.3c0,44.2,35.8,80.1,80.1,80.1V0H66z"/>
</svg>
