<?xml version="1.0" encoding="utf-8"?>
<!-- Generator: Adobe Illustrator 23.0.6, SVG Export Plug-In . SVG Version: 6.00 Build 0)  -->
<svg version="1.1" id="Layer_1" xmlns="http://www.w3.org/2000/svg" xmlns:xlink="http://www.w3.org/1999/xlink" x="0px" y="0px"
	 width="146.3px" height="292px" viewBox="0 0 146.3 292" style="enable-background:new 0 0 146.3 292;" xml:space="preserve">
<path style="fill:#E78746;" d="M0,0c0.1,0,0.2,0,0.3,0c80.6,0,146,65.4,146,146S80.9,292,0.3,292c-0.1,0-0.2,0-0.3,0V0z"/>
<path style="fill:#EDDBC7;" d="M0,34.4c0.1,0,0.2,0,0.3,0c61.6,0,111.6,50,111.6,111.6S61.9,257.6,0.3,257.6c-0.1,0-0.2,0-0.3,0
	V34.4z"/>
<path style="fill:#E7A146;" d="M0,66c0.1,0,0.2,0,0.3,0c44.2,0,80.1,35.8,80.1,80.1s-35.8,80.1-80.1,80.1c-0.1,0-0.2,0-0.3,0V66z"/>
<path style="fill:#B5522B;" d="M0,66c0.1,0,0.2,0,0.3,0c44.2,0,80.1,35.8,80.1,80.1H0V66z"/>
</svg>
