<?xml version="1.0" encoding="utf-8"?>
<!-- Generator: Adobe Illustrator 23.0.6, SVG Export Plug-In . SVG Version: 6.00 Build 0)  -->
<svg version="1.1" id="Layer_1" xmlns="http://www.w3.org/2000/svg" xmlns:xlink="http://www.w3.org/1999/xlink" x="0px" y="0px"
	 width="256.5px" height="63px" viewBox="0 0 256.5 63" style="enable-background:new 0 0 256.5 63;" xml:space="preserve">
<g>
	<g>
		<path d="M81.6,11c0.6,0.4,1.1,0.9,1.4,1.5c0.4,0.6,0.6,1.4,0.6,2.3c0,0.9-0.2,1.7-0.6,2.4c-0.4,0.7-0.9,1.2-1.6,1.7
			c-0.6,0.4-1.3,0.8-2.1,1c-0.8,0.2-1.6,0.3-2.4,0.3h-9.4v-1c0.2,0,0.5-0.1,1-0.1c0.4-0.1,0.7-0.1,0.9-0.2c0.3-0.1,0.5-0.3,0.6-0.5
			c0.1-0.2,0.2-0.5,0.2-0.8V3.3c0-0.3-0.1-0.6-0.2-0.8c-0.1-0.2-0.3-0.4-0.6-0.6c-0.3-0.1-0.6-0.2-0.9-0.3c-0.3-0.1-0.6-0.1-0.9-0.1
			v-1h9.2c0.7,0,1.4,0.1,2,0.2C79.4,0.8,80,1,80.6,1.4c0.5,0.3,1,0.8,1.4,1.3c0.4,0.6,0.5,1.2,0.5,2c0,0.7-0.1,1.3-0.4,1.9
			c-0.3,0.5-0.6,1-1.1,1.4c-0.4,0.4-0.9,0.7-1.5,0.9c-0.6,0.3-1.2,0.5-1.8,0.6v0.1c0.6,0.1,1.2,0.2,1.9,0.4
			C80.4,10.3,81,10.6,81.6,11z M78.2,8c0.3-0.4,0.6-0.8,0.7-1.3c0.1-0.5,0.2-1,0.2-1.7c0-1.1-0.3-1.9-0.9-2.6
			c-0.6-0.6-1.5-0.9-2.8-0.9c-0.3,0-0.7,0-1.1,0c-0.5,0-0.8,0-1.1,0v7.6h1.8c0.8,0,1.4-0.1,2-0.3C77.4,8.7,77.9,8.4,78.2,8z
			 M80.1,14.4c0-1.2-0.4-2.1-1.2-2.9c-0.8-0.8-1.9-1.1-3.4-1.1c-0.6,0-1.1,0-1.5,0c-0.4,0-0.7,0-0.9,0v7c0,0.6,0.2,1,0.7,1.3
			c0.5,0.3,1.1,0.4,2,0.4c1.4,0,2.5-0.4,3.2-1.2C79.8,17.1,80.1,16,80.1,14.4z"/>
	</g>
	<g>
		<path d="M102.9,14.4l-0.4,5.8H86.1v-1c0.3,0,0.7-0.1,1.1-0.1c0.5-0.1,0.8-0.1,0.9-0.2c0.3-0.1,0.5-0.3,0.6-0.5
			c0.1-0.2,0.2-0.5,0.2-0.9V3.3c0-0.3-0.1-0.6-0.2-0.8c-0.1-0.2-0.3-0.4-0.6-0.6c-0.3-0.1-0.6-0.2-1-0.3c-0.4-0.1-0.8-0.1-1-0.2v-1
			h15.3v4.8h-1c-0.2-0.7-0.6-1.5-1.2-2.3c-0.6-0.8-1.2-1.2-1.8-1.3c-0.3,0-0.6-0.1-1-0.1c-0.4,0-0.9,0-1.4,0h-3.1v7.9h2.2
			c0.7,0,1.2-0.1,1.6-0.2c0.3-0.1,0.6-0.4,0.9-0.7c0.2-0.3,0.4-0.6,0.5-1.1c0.1-0.5,0.2-0.9,0.3-1.3h1V14h-1c0-0.4-0.1-0.9-0.3-1.4
			c-0.2-0.5-0.3-0.9-0.5-1.1c-0.3-0.4-0.6-0.6-1-0.7c-0.4-0.1-0.9-0.2-1.5-0.2h-2.2v5.9c0,0.6,0,1.1,0.1,1.4
			c0.1,0.3,0.2,0.6,0.5,0.8c0.2,0.2,0.6,0.3,1,0.3c0.4,0.1,1,0.1,1.8,0.1c0.3,0,0.7,0,1.2,0c0.5,0,0.9,0,1.3-0.1
			c0.4,0,0.7-0.1,1.1-0.2c0.4-0.1,0.6-0.2,0.8-0.4c0.4-0.4,0.9-1.1,1.3-2c0.5-0.9,0.8-1.6,0.9-2H102.9z"/>
	</g>
	<g>
		<path d="M124.3,20.3h-5.3c-1.2-1.9-2.3-3.5-3.2-4.8c-1-1.4-2-2.7-3.1-4.2h-2v6.3c0,0.3,0.1,0.6,0.2,0.9c0.1,0.2,0.3,0.4,0.7,0.6
			c0.2,0.1,0.5,0.1,0.9,0.2c0.4,0.1,0.8,0.1,1.1,0.1v1h-8.4v-1c0.2,0,0.5-0.1,1-0.1c0.4,0,0.7-0.1,0.9-0.2c0.3-0.1,0.5-0.3,0.6-0.5
			c0.1-0.2,0.2-0.5,0.2-0.9V3.2c0-0.3,0-0.6-0.1-0.9c-0.1-0.3-0.3-0.4-0.7-0.6c-0.2-0.1-0.5-0.2-0.9-0.2c-0.4-0.1-0.7-0.1-1-0.1v-1
			h9.2c0.8,0,1.6,0.1,2.4,0.3c0.7,0.2,1.4,0.4,2,0.8c0.6,0.4,1,0.9,1.4,1.5c0.3,0.6,0.5,1.3,0.5,2.2c0,0.8-0.1,1.4-0.3,2
			c-0.2,0.6-0.6,1.1-1,1.5c-0.4,0.4-0.9,0.7-1.5,1c-0.6,0.3-1.2,0.5-1.9,0.7c1,1.3,1.8,2.4,2.4,3.3c0.6,0.9,1.4,2,2.4,3.2
			c0.4,0.6,0.8,1,1.1,1.2c0.3,0.3,0.7,0.5,1,0.6c0.2,0.1,0.5,0.2,0.9,0.3c0.4,0.1,0.7,0.1,0.9,0.1V20.3z M116.9,5.5
			c0-1.2-0.3-2.2-1-2.9c-0.7-0.7-1.7-1.1-2.9-1.1h-2.4v8.5h1.8c1.3,0,2.4-0.4,3.2-1.2C116.5,8,116.9,6.9,116.9,5.5z"/>
	</g>
	<g>
		<path d="M144.3,20.3h-5.6c-1.1-1.7-2.3-3.3-3.6-4.9c-1.3-1.6-2.7-3.2-4.1-4.8h-0.4v6.9c0,0.3,0.1,0.6,0.2,0.8
			c0.1,0.2,0.3,0.4,0.6,0.6c0.1,0.1,0.4,0.1,0.8,0.2c0.4,0.1,0.7,0.1,1,0.2v1h-8.2v-1c0.2,0,0.5,0,0.9-0.1c0.4,0,0.7-0.1,0.9-0.2
			c0.3-0.1,0.5-0.3,0.6-0.5s0.2-0.5,0.2-0.9V3.3c0-0.3-0.1-0.6-0.2-0.8c-0.1-0.2-0.3-0.4-0.6-0.6c-0.3-0.1-0.6-0.2-0.9-0.3
			c-0.3-0.1-0.6-0.1-0.9-0.2v-1h8.2v1c-0.3,0-0.6,0.1-1,0.1c-0.4,0.1-0.7,0.1-0.9,0.2c-0.3,0.1-0.5,0.3-0.6,0.6
			c-0.1,0.3-0.2,0.5-0.2,0.9V10h0.3c0.8-0.7,1.7-1.4,2.5-2.2c0.8-0.8,1.5-1.5,2.2-2.3c0.7-0.8,1.3-1.5,1.6-2c0.3-0.5,0.5-1,0.5-1.3
			c0-0.1-0.1-0.3-0.3-0.3c-0.2-0.1-0.4-0.2-0.6-0.2c-0.3-0.1-0.5-0.1-0.7-0.1c-0.2,0-0.4,0-0.5,0v-1h7.4v1c0,0-0.1,0-0.2,0
			c-0.1,0-0.2,0-0.3,0c-0.1,0-0.3,0-0.4,0.1c-0.1,0-0.3,0.1-0.5,0.1c-0.3,0.1-0.7,0.2-1,0.4c-0.3,0.2-0.6,0.4-0.9,0.6
			c-1,1.1-2,2.2-3,3.4c-1,1.2-2.1,2.2-3.1,3.2c1.4,1.6,2.6,3,3.5,4.1c0.9,1.2,1.9,2.4,3,3.7c0.4,0.5,0.8,0.9,1.2,1.2
			c0.4,0.3,0.7,0.5,1,0.7c0.2,0.1,0.5,0.2,0.9,0.3c0.4,0.1,0.7,0.1,0.9,0.1V20.3z"/>
	</g>
	<g>
		<path d="M157.2,11.2c0.4,0.5,0.7,1,0.9,1.5c0.2,0.6,0.3,1.2,0.3,1.9c0,1.8-0.6,3.2-1.9,4.3c-1.3,1.1-2.9,1.7-4.8,1.7
			c-0.9,0-1.8-0.1-2.7-0.4c-0.9-0.3-1.6-0.6-2.3-1l-0.6,1H145l-0.2-6.8h1.1c0.2,0.8,0.5,1.6,0.8,2.3c0.3,0.7,0.7,1.3,1.2,1.9
			c0.5,0.5,1.1,1,1.7,1.3c0.6,0.3,1.4,0.5,2.3,0.5c0.6,0,1.2-0.1,1.7-0.3c0.5-0.2,0.9-0.4,1.2-0.7c0.3-0.3,0.5-0.7,0.7-1.1
			c0.1-0.4,0.2-0.9,0.2-1.4c0-0.8-0.2-1.5-0.7-2.2c-0.4-0.7-1.1-1.2-2-1.6c-0.6-0.2-1.3-0.5-2.1-0.8c-0.8-0.3-1.5-0.6-2-0.8
			c-1.1-0.5-2-1.2-2.6-2c-0.6-0.8-0.9-1.9-0.9-3.2c0-0.8,0.2-1.5,0.5-2.1s0.7-1.2,1.3-1.7c0.5-0.5,1.2-0.9,1.9-1.1
			c0.7-0.3,1.5-0.4,2.3-0.4c0.9,0,1.7,0.1,2.5,0.4c0.7,0.3,1.4,0.6,2,1l0.6-1h1.1l0.1,6.6h-1.1c-0.2-0.8-0.4-1.5-0.7-2.2
			c-0.3-0.7-0.6-1.3-1-1.9c-0.4-0.5-0.9-1-1.5-1.3c-0.6-0.3-1.3-0.5-2.1-0.5c-0.9,0-1.6,0.3-2.3,0.9c-0.6,0.6-0.9,1.3-0.9,2.1
			c0,0.9,0.2,1.6,0.6,2.1c0.4,0.6,1,1,1.7,1.4c0.7,0.3,1.3,0.6,2,0.8s1.3,0.5,1.9,0.8c0.6,0.2,1.1,0.5,1.6,0.8
			C156.4,10.4,156.9,10.8,157.2,11.2z"/>
	</g>
	<g>
		<path d="M181.5,20.3h-8.2v-1c0.2,0,0.5,0,1-0.1c0.4,0,0.7-0.1,0.9-0.2c0.3-0.1,0.5-0.3,0.6-0.5c0.1-0.2,0.2-0.5,0.2-0.9v-7.1h-9.3
			v6.9c0,0.3,0.1,0.6,0.2,0.8c0.1,0.2,0.3,0.4,0.6,0.6c0.2,0.1,0.4,0.2,0.8,0.3c0.4,0.1,0.7,0.1,1,0.1v1h-8.2v-1c0.2,0,0.5,0,1-0.1
			c0.4,0,0.7-0.1,0.9-0.2c0.3-0.1,0.5-0.3,0.6-0.5c0.1-0.2,0.2-0.5,0.2-0.9V3.3c0-0.3-0.1-0.6-0.2-0.8c-0.1-0.2-0.3-0.4-0.6-0.6
			c-0.3-0.1-0.6-0.2-0.9-0.3c-0.4-0.1-0.7-0.1-0.9-0.2v-1h8.2v1c-0.3,0-0.6,0.1-1,0.1c-0.4,0.1-0.7,0.1-0.8,0.2
			c-0.3,0.1-0.5,0.3-0.6,0.6c-0.1,0.3-0.2,0.5-0.2,0.9v6.1h9.3v-6c0-0.3-0.1-0.6-0.2-0.8c-0.1-0.2-0.3-0.4-0.6-0.6
			c-0.3-0.1-0.6-0.2-0.9-0.3c-0.4-0.1-0.7-0.1-0.9-0.2v-1h8.2v1c-0.3,0-0.6,0.1-1,0.1c-0.4,0.1-0.7,0.1-0.8,0.2
			c-0.3,0.1-0.5,0.3-0.6,0.6c-0.1,0.3-0.2,0.5-0.2,0.9v14.3c0,0.3,0.1,0.6,0.2,0.8c0.1,0.2,0.3,0.4,0.6,0.6c0.2,0.1,0.4,0.2,0.8,0.3
			c0.4,0.1,0.7,0.1,1,0.1V20.3z"/>
	</g>
	<g>
		<path d="M192.9,20.3H184v-1c0.3,0,0.6,0,1.1-0.1c0.5,0,0.8-0.1,1-0.2c0.3-0.1,0.5-0.3,0.7-0.5c0.1-0.2,0.2-0.5,0.2-0.9V3.3
			c0-0.3-0.1-0.6-0.2-0.8c-0.1-0.2-0.3-0.4-0.7-0.6c-0.3-0.1-0.6-0.2-1.1-0.3c-0.4-0.1-0.8-0.2-1-0.2v-1h8.9v1c-0.3,0-0.6,0-1,0.1
			c-0.4,0.1-0.7,0.1-1,0.2c-0.4,0.1-0.6,0.3-0.7,0.5C190,2.6,190,2.9,190,3.2v14.4c0,0.3,0.1,0.6,0.2,0.8c0.1,0.2,0.4,0.4,0.7,0.6
			c0.2,0.1,0.5,0.2,1,0.2c0.4,0.1,0.8,0.1,1.1,0.1V20.3z"/>
	</g>
	<g>
		<path d="M214.7,20.3h-5.3c-1.2-1.9-2.2-3.5-3.2-4.8c-1-1.4-2-2.7-3.1-4.2h-2v6.3c0,0.3,0.1,0.6,0.2,0.9c0.1,0.2,0.3,0.4,0.7,0.6
			c0.2,0.1,0.5,0.1,0.9,0.2c0.4,0.1,0.8,0.1,1.1,0.1v1h-8.4v-1c0.2,0,0.5-0.1,1-0.1c0.4,0,0.7-0.1,0.9-0.2c0.3-0.1,0.5-0.3,0.6-0.5
			c0.1-0.2,0.2-0.5,0.2-0.9V3.2c0-0.3,0-0.6-0.1-0.9c-0.1-0.3-0.3-0.4-0.7-0.6c-0.2-0.1-0.5-0.2-0.9-0.2c-0.4-0.1-0.7-0.1-1-0.1v-1
			h9.2c0.8,0,1.6,0.1,2.4,0.3c0.7,0.2,1.4,0.4,2,0.8c0.6,0.4,1,0.9,1.4,1.5c0.3,0.6,0.5,1.3,0.5,2.2c0,0.8-0.1,1.4-0.3,2
			c-0.2,0.6-0.6,1.1-1,1.5c-0.4,0.4-0.9,0.7-1.5,1c-0.6,0.3-1.2,0.5-1.9,0.7c1,1.3,1.8,2.4,2.4,3.3c0.6,0.9,1.4,2,2.4,3.2
			c0.4,0.6,0.8,1,1.1,1.2s0.7,0.5,1,0.6c0.2,0.1,0.5,0.2,0.9,0.3c0.4,0.1,0.7,0.1,0.9,0.1V20.3z M207.4,5.5c0-1.2-0.3-2.2-1-2.9
			c-0.7-0.7-1.7-1.1-2.9-1.1h-2.4v8.5h1.8c1.3,0,2.4-0.4,3.2-1.2C207,8,207.4,6.9,207.4,5.5z"/>
	</g>
	<g>
		<path d="M232.2,14.4l-0.4,5.8h-16.5v-1c0.3,0,0.7-0.1,1.1-0.1c0.5-0.1,0.8-0.1,0.9-0.2c0.3-0.1,0.5-0.3,0.6-0.5
			c0.1-0.2,0.2-0.5,0.2-0.9V3.3c0-0.3-0.1-0.6-0.2-0.8c-0.1-0.2-0.3-0.4-0.6-0.6c-0.3-0.1-0.6-0.2-1-0.3c-0.4-0.1-0.8-0.1-1-0.2v-1
			h15.3v4.8h-1c-0.2-0.7-0.6-1.5-1.2-2.3c-0.6-0.8-1.2-1.2-1.8-1.3c-0.3,0-0.6-0.1-1-0.1c-0.4,0-0.9,0-1.4,0h-3.1v7.9h2.2
			c0.7,0,1.2-0.1,1.6-0.2c0.3-0.1,0.6-0.4,0.9-0.7c0.2-0.3,0.4-0.6,0.5-1.1c0.1-0.5,0.2-0.9,0.3-1.3h1V14h-1c0-0.4-0.1-0.9-0.3-1.4
			c-0.2-0.5-0.3-0.9-0.5-1.1c-0.3-0.4-0.6-0.6-1-0.7c-0.4-0.1-0.9-0.2-1.5-0.2h-2.2v5.9c0,0.6,0,1.1,0.1,1.4
			c0.1,0.3,0.2,0.6,0.5,0.8c0.2,0.2,0.6,0.3,1,0.3s1,0.1,1.8,0.1c0.3,0,0.7,0,1.2,0c0.5,0,0.9,0,1.3-0.1c0.4,0,0.7-0.1,1.1-0.2
			c0.4-0.1,0.6-0.2,0.8-0.4c0.4-0.4,0.9-1.1,1.3-2c0.5-0.9,0.8-1.6,0.9-2H232.2z"/>
	</g>
</g>
<g>
	<g>
		<path d="M81.6,36c0.6,0.4,1.1,0.9,1.4,1.5c0.4,0.6,0.6,1.4,0.6,2.3c0,0.9-0.2,1.7-0.6,2.4c-0.4,0.7-0.9,1.2-1.6,1.7
			c-0.6,0.4-1.3,0.8-2.1,1c-0.8,0.2-1.6,0.3-2.4,0.3h-9.4v-1c0.2,0,0.5-0.1,1-0.1c0.4-0.1,0.7-0.1,0.9-0.2c0.3-0.1,0.5-0.3,0.6-0.5
			c0.1-0.2,0.2-0.5,0.2-0.8V28.3c0-0.3-0.1-0.6-0.2-0.8c-0.1-0.2-0.3-0.4-0.6-0.6c-0.3-0.1-0.6-0.2-0.9-0.3
			c-0.3-0.1-0.6-0.1-0.9-0.1v-1h9.2c0.7,0,1.4,0.1,2,0.2c0.6,0.1,1.3,0.4,1.9,0.7c0.5,0.3,1,0.8,1.4,1.3c0.4,0.6,0.5,1.2,0.5,2
			c0,0.7-0.1,1.3-0.4,1.9c-0.3,0.5-0.6,1-1.1,1.4c-0.4,0.4-0.9,0.7-1.5,0.9c-0.6,0.3-1.2,0.5-1.8,0.6v0.1c0.6,0.1,1.2,0.2,1.9,0.4
			C80.4,35.3,81,35.6,81.6,36z M78.2,33c0.3-0.4,0.6-0.8,0.7-1.3c0.1-0.5,0.2-1,0.2-1.7c0-1.1-0.3-1.9-0.9-2.6
			c-0.6-0.6-1.5-0.9-2.8-0.9c-0.3,0-0.7,0-1.1,0c-0.5,0-0.8,0-1.1,0v7.6h1.8c0.8,0,1.4-0.1,2-0.3C77.4,33.7,77.9,33.4,78.2,33z
			 M80.1,39.4c0-1.2-0.4-2.1-1.2-2.9c-0.8-0.8-1.9-1.1-3.4-1.1c-0.6,0-1.1,0-1.5,0c-0.4,0-0.7,0-0.9,0v7c0,0.6,0.2,1,0.7,1.3
			c0.5,0.3,1.1,0.4,2,0.4c1.4,0,2.5-0.4,3.2-1.2C79.8,42.1,80.1,40.9,80.1,39.4z"/>
	</g>
	<g>
		<path d="M106.3,26.4c-0.3,0-0.6,0.1-1.1,0.2c-0.5,0.1-0.9,0.3-1.2,0.5c-0.3,0.2-0.5,0.7-0.7,1.3c-0.1,0.7-0.2,1.5-0.2,2.5v8.6
			c0,1.1-0.2,2.1-0.7,2.9c-0.5,0.8-1.1,1.5-1.8,2c-0.7,0.5-1.5,0.9-2.3,1.1c-0.8,0.2-1.6,0.3-2.3,0.3c-1.2,0-2.3-0.2-3.2-0.5
			C91.8,45,91,44.5,90.4,44c-0.6-0.5-1.1-1.1-1.4-1.8c-0.3-0.7-0.5-1.4-0.5-2.1V28.3c0-0.3-0.1-0.6-0.2-0.8
			c-0.1-0.2-0.3-0.4-0.7-0.6c-0.2-0.1-0.5-0.2-0.9-0.3c-0.4-0.1-0.7-0.1-0.9-0.1v-1h8.3v1c-0.3,0-0.6,0.1-1,0.1
			c-0.4,0.1-0.7,0.1-0.9,0.2c-0.3,0.1-0.5,0.3-0.6,0.6c-0.1,0.3-0.2,0.5-0.2,0.9v10.9c0,0.5,0.1,1.1,0.2,1.7
			c0.1,0.6,0.3,1.1,0.7,1.6c0.4,0.5,0.9,0.9,1.5,1.3c0.6,0.3,1.5,0.5,2.6,0.5c1,0,1.9-0.2,2.6-0.5c0.7-0.3,1.2-0.8,1.6-1.3
			c0.4-0.5,0.7-1,0.8-1.6c0.2-0.5,0.2-1.1,0.2-1.7V31c0-1-0.1-1.9-0.2-2.5c-0.1-0.7-0.4-1.1-0.7-1.3c-0.3-0.2-0.8-0.4-1.3-0.5
			c-0.6-0.1-1-0.2-1.3-0.2v-1h8.1V26.4z"/>
	</g>
	<g>
		<path d="M127.2,45.3h-5.3c-1.2-1.9-2.3-3.5-3.2-4.8c-1-1.4-2-2.7-3.1-4.2h-2v6.3c0,0.3,0.1,0.6,0.2,0.9c0.1,0.2,0.3,0.4,0.7,0.6
			c0.2,0.1,0.5,0.1,0.9,0.2c0.4,0.1,0.8,0.1,1.1,0.1v1h-8.4v-1c0.2,0,0.5-0.1,1-0.1c0.4,0,0.7-0.1,0.9-0.2c0.3-0.1,0.5-0.3,0.6-0.5
			c0.1-0.2,0.2-0.5,0.2-0.9V28.2c0-0.3,0-0.6-0.1-0.9c-0.1-0.3-0.3-0.4-0.7-0.6c-0.2-0.1-0.5-0.2-0.9-0.2c-0.4-0.1-0.7-0.1-1-0.1v-1
			h9.2c0.8,0,1.6,0.1,2.4,0.3c0.7,0.2,1.4,0.4,2,0.8c0.6,0.4,1,0.9,1.4,1.5c0.3,0.6,0.5,1.3,0.5,2.2c0,0.8-0.1,1.4-0.3,2
			c-0.2,0.6-0.6,1.1-1,1.5c-0.4,0.4-0.9,0.7-1.5,1c-0.6,0.3-1.2,0.5-1.9,0.7c1,1.3,1.8,2.4,2.4,3.3c0.6,0.9,1.4,2,2.4,3.2
			c0.4,0.6,0.8,1,1.1,1.2c0.3,0.3,0.7,0.5,1,0.6c0.2,0.1,0.5,0.2,0.9,0.3c0.4,0.1,0.7,0.1,0.9,0.1V45.3z M119.8,30.5
			c0-1.2-0.3-2.2-1-2.9c-0.7-0.7-1.7-1.1-2.9-1.1h-2.4v8.5h1.8c1.3,0,2.4-0.4,3.2-1.2C119.4,33,119.8,31.9,119.8,30.5z"/>
	</g>
	<g>
		<path d="M151.8,45.3h-8.8v-1c0.3,0,0.7,0,1.2-0.1c0.5-0.1,0.8-0.1,1-0.2c0.3-0.2,0.5-0.4,0.6-0.6c0.1-0.2,0.2-0.5,0.2-0.9V28.1
			H146L139.2,45h-0.7L132,27.7h-0.2v11.8c0,1.1,0.1,2,0.2,2.6c0.1,0.6,0.4,1,0.7,1.3c0.2,0.2,0.6,0.4,1.3,0.6
			c0.6,0.2,1.1,0.3,1.3,0.3v1h-8v-1c0.4,0,0.9-0.1,1.3-0.2c0.5-0.1,0.8-0.3,1.1-0.5c0.3-0.3,0.5-0.7,0.7-1.2
			c0.1-0.5,0.2-1.4,0.2-2.7V29.5c0-0.6-0.1-1.1-0.2-1.4c-0.1-0.4-0.3-0.7-0.6-0.9c-0.3-0.3-0.6-0.4-1.1-0.6
			c-0.4-0.1-0.8-0.2-1.2-0.2v-1h6.8l5.7,14.9l4.8-12.5c0.2-0.5,0.3-0.9,0.5-1.4c0.1-0.5,0.2-0.8,0.2-1h6.5v1c-0.3,0-0.6,0.1-1,0.1
			c-0.4,0.1-0.7,0.1-0.9,0.2c-0.3,0.1-0.5,0.3-0.6,0.6c-0.1,0.3-0.2,0.5-0.2,0.9v14.3c0,0.3,0.1,0.6,0.2,0.8s0.3,0.4,0.6,0.6
			c0.2,0.1,0.5,0.2,0.9,0.3c0.4,0.1,0.8,0.1,1,0.1V45.3z"/>
	</g>
	<g>
		<path d="M171.2,39.4l-0.4,5.8h-16.5v-1c0.3,0,0.7-0.1,1.1-0.1c0.5-0.1,0.8-0.1,0.9-0.2c0.3-0.1,0.5-0.3,0.6-0.5
			c0.1-0.2,0.2-0.5,0.2-0.9V28.3c0-0.3-0.1-0.6-0.2-0.8s-0.3-0.4-0.6-0.6c-0.3-0.1-0.6-0.2-1-0.3c-0.4-0.1-0.8-0.1-1-0.2v-1h15.3
			v4.8h-1c-0.2-0.7-0.6-1.5-1.2-2.3c-0.6-0.8-1.2-1.2-1.8-1.3c-0.3,0-0.6-0.1-1-0.1c-0.4,0-0.9,0-1.4,0h-3.1v7.9h2.2
			c0.7,0,1.2-0.1,1.6-0.2c0.3-0.1,0.6-0.4,0.9-0.7c0.2-0.3,0.4-0.6,0.5-1.1c0.1-0.5,0.2-0.9,0.3-1.3h1V39h-1c0-0.4-0.1-0.9-0.3-1.4
			c-0.2-0.5-0.3-0.9-0.5-1.1c-0.3-0.4-0.6-0.6-1-0.7c-0.4-0.1-0.9-0.2-1.5-0.2h-2.2v5.9c0,0.6,0,1.1,0.1,1.4
			c0.1,0.3,0.2,0.6,0.5,0.8c0.2,0.2,0.6,0.3,1,0.3c0.4,0.1,1,0.1,1.8,0.1c0.3,0,0.7,0,1.2,0c0.5,0,0.9,0,1.3-0.1
			c0.4,0,0.7-0.1,1.1-0.2c0.4-0.1,0.6-0.2,0.8-0.4c0.4-0.4,0.9-1.1,1.3-2c0.5-0.9,0.8-1.6,0.9-2H171.2z"/>
	</g>
	<g>
		<path d="M181.9,45.3h-8.9v-1c0.3,0,0.6,0,1.1-0.1c0.5,0,0.8-0.1,1-0.2c0.3-0.1,0.5-0.3,0.7-0.5c0.1-0.2,0.2-0.5,0.2-0.9V28.3
			c0-0.3-0.1-0.6-0.2-0.8c-0.1-0.2-0.3-0.4-0.7-0.6c-0.3-0.1-0.6-0.2-1.1-0.3c-0.4-0.1-0.8-0.2-1-0.2v-1h8.9v1c-0.3,0-0.6,0-1,0.1
			c-0.4,0.1-0.7,0.1-1,0.2c-0.4,0.1-0.6,0.3-0.7,0.5c-0.1,0.3-0.2,0.5-0.2,0.8v14.4c0,0.3,0.1,0.6,0.2,0.8c0.1,0.2,0.4,0.4,0.7,0.6
			c0.2,0.1,0.5,0.2,1,0.2c0.4,0.1,0.8,0.1,1.1,0.1V45.3z"/>
	</g>
	<g>
		<path d="M196.7,36.2c0.4,0.5,0.7,1,0.9,1.5c0.2,0.6,0.3,1.2,0.3,1.9c0,1.8-0.6,3.2-1.9,4.3c-1.3,1.1-2.9,1.7-4.8,1.7
			c-0.9,0-1.8-0.1-2.7-0.4c-0.9-0.3-1.6-0.6-2.3-1l-0.6,1h-1.1l-0.2-6.8h1.1c0.2,0.8,0.5,1.6,0.8,2.3c0.3,0.7,0.7,1.3,1.2,1.9
			c0.5,0.5,1.1,1,1.7,1.3c0.6,0.3,1.4,0.5,2.3,0.5c0.6,0,1.2-0.1,1.7-0.3c0.5-0.2,0.9-0.4,1.2-0.7c0.3-0.3,0.5-0.7,0.7-1.1
			c0.1-0.4,0.2-0.9,0.2-1.4c0-0.8-0.2-1.5-0.7-2.2c-0.4-0.7-1.1-1.2-2-1.6c-0.6-0.2-1.3-0.5-2.1-0.8c-0.8-0.3-1.5-0.6-2-0.8
			c-1.1-0.5-2-1.2-2.6-2c-0.6-0.8-0.9-1.9-0.9-3.2c0-0.8,0.2-1.5,0.5-2.1c0.3-0.7,0.7-1.2,1.3-1.7c0.5-0.5,1.2-0.9,1.9-1.1
			c0.7-0.3,1.5-0.4,2.3-0.4c0.9,0,1.7,0.1,2.5,0.4c0.7,0.3,1.4,0.6,2,1l0.6-1h1.1l0.1,6.6H196c-0.2-0.8-0.4-1.5-0.7-2.2
			c-0.3-0.7-0.6-1.3-1-1.9c-0.4-0.5-0.9-1-1.5-1.3c-0.6-0.3-1.3-0.5-2.1-0.5c-0.9,0-1.6,0.3-2.3,0.9c-0.6,0.6-0.9,1.3-0.9,2.1
			c0,0.9,0.2,1.6,0.6,2.1c0.4,0.6,1,1,1.7,1.4c0.7,0.3,1.3,0.6,2,0.8c0.7,0.2,1.3,0.5,1.9,0.8c0.6,0.2,1.1,0.5,1.6,0.8
			C195.9,35.4,196.3,35.8,196.7,36.2z"/>
	</g>
	<g>
		<path d="M216.5,30.8h-1c-0.1-0.3-0.2-0.7-0.5-1.2c-0.2-0.5-0.5-0.9-0.7-1.3c-0.3-0.4-0.6-0.8-0.9-1.1c-0.3-0.3-0.7-0.5-1-0.6
			c-0.3,0-0.7-0.1-1.1-0.1c-0.4,0-0.8,0-1.2,0h-0.8v15.9c0,0.3,0.1,0.6,0.2,0.8c0.1,0.3,0.4,0.5,0.7,0.6c0.2,0.1,0.5,0.2,1.1,0.3
			c0.5,0.1,1,0.2,1.3,0.2v1h-9.4v-1c0.3,0,0.7-0.1,1.2-0.1c0.5-0.1,0.9-0.1,1.1-0.2c0.3-0.1,0.5-0.3,0.7-0.5
			c0.1-0.2,0.2-0.5,0.2-0.9v-16h-0.8c-0.3,0-0.6,0-1.1,0c-0.4,0-0.8,0-1.2,0.1c-0.3,0-0.6,0.2-1,0.6c-0.3,0.3-0.6,0.7-0.9,1.1
			c-0.3,0.4-0.5,0.9-0.7,1.3c-0.2,0.5-0.4,0.9-0.4,1.2h-1v-5.4h17.3V30.8z"/>
	</g>
	<g>
		<path d="M234.8,39.4l-0.4,5.8H218v-1c0.3,0,0.7-0.1,1.1-0.1c0.5-0.1,0.8-0.1,0.9-0.2c0.3-0.1,0.5-0.3,0.6-0.5
			c0.1-0.2,0.2-0.5,0.2-0.9V28.3c0-0.3-0.1-0.6-0.2-0.8c-0.1-0.2-0.3-0.4-0.6-0.6c-0.3-0.1-0.6-0.2-1-0.3c-0.4-0.1-0.8-0.1-1-0.2v-1
			h15.3v4.8h-1c-0.2-0.7-0.6-1.5-1.2-2.3c-0.6-0.8-1.2-1.2-1.8-1.3c-0.3,0-0.6-0.1-1-0.1c-0.4,0-0.9,0-1.4,0h-3.1v7.9h2.2
			c0.7,0,1.2-0.1,1.6-0.2c0.3-0.1,0.6-0.4,0.9-0.7c0.2-0.3,0.4-0.6,0.5-1.1c0.1-0.5,0.2-0.9,0.3-1.3h1V39h-1c0-0.4-0.1-0.9-0.3-1.4
			c-0.2-0.5-0.3-0.9-0.5-1.1c-0.3-0.4-0.6-0.6-1-0.7c-0.4-0.1-0.9-0.2-1.5-0.2h-2.2v5.9c0,0.6,0,1.1,0.1,1.4
			c0.1,0.3,0.2,0.6,0.5,0.8c0.2,0.2,0.6,0.3,1,0.3c0.4,0.1,1,0.1,1.8,0.1c0.3,0,0.7,0,1.2,0c0.5,0,0.9,0,1.3-0.1
			c0.4,0,0.7-0.1,1.1-0.2c0.4-0.1,0.6-0.2,0.8-0.4c0.4-0.4,0.9-1.1,1.3-2c0.5-0.9,0.8-1.6,0.9-2H234.8z"/>
	</g>
	<g>
		<path d="M256.1,45.3h-5.3c-1.2-1.9-2.2-3.5-3.2-4.8c-1-1.4-2-2.7-3.1-4.2h-2v6.3c0,0.3,0.1,0.6,0.2,0.9c0.1,0.2,0.3,0.4,0.7,0.6
			c0.2,0.1,0.5,0.1,0.9,0.2s0.8,0.1,1.1,0.1v1h-8.4v-1c0.2,0,0.5-0.1,1-0.1c0.4,0,0.7-0.1,0.9-0.2c0.3-0.1,0.5-0.3,0.6-0.5
			c0.1-0.2,0.2-0.5,0.2-0.9V28.2c0-0.3,0-0.6-0.1-0.9c-0.1-0.3-0.3-0.4-0.7-0.6c-0.2-0.1-0.5-0.2-0.9-0.2c-0.4-0.1-0.7-0.1-1-0.1v-1
			h9.2c0.8,0,1.6,0.1,2.4,0.3c0.7,0.2,1.4,0.4,2,0.8c0.6,0.4,1,0.9,1.4,1.5s0.5,1.3,0.5,2.2c0,0.8-0.1,1.4-0.3,2
			c-0.2,0.6-0.6,1.1-1,1.5c-0.4,0.4-0.9,0.7-1.5,1c-0.6,0.3-1.2,0.5-1.9,0.7c1,1.3,1.8,2.4,2.4,3.3c0.6,0.9,1.4,2,2.4,3.2
			c0.4,0.6,0.8,1,1.1,1.2c0.3,0.3,0.7,0.5,1,0.6c0.2,0.1,0.5,0.2,0.9,0.3c0.4,0.1,0.7,0.1,0.9,0.1V45.3z M248.8,30.5
			c0-1.2-0.3-2.2-1-2.9c-0.7-0.7-1.7-1.1-2.9-1.1h-2.4v8.5h1.8c1.3,0,2.4-0.4,3.2-1.2C248.4,33,248.8,31.9,248.8,30.5z"/>
	</g>
</g>
<g>
	<g>
		<path style="fill:#C2B59B;" d="M100.6,62.8h-2.8v-0.3c0.2,0,0.4,0,0.6-0.1c0.2,0,0.2-0.1,0.2-0.2c0,0,0-0.1,0-0.1c0,0,0-0.1,0-0.1
			L98,60.5h-2.3c-0.1,0.2-0.2,0.4-0.2,0.6c-0.1,0.2-0.1,0.3-0.1,0.5c0,0.1-0.1,0.2-0.1,0.3c0,0.1,0,0.2,0,0.2c0,0.1,0.1,0.2,0.3,0.3
			c0.2,0.1,0.4,0.1,0.7,0.1v0.3h-2.5v-0.3c0.1,0,0.2,0,0.3-0.1c0.1,0,0.2-0.1,0.3-0.1c0.1-0.1,0.2-0.2,0.3-0.3
			c0.1-0.1,0.1-0.2,0.2-0.4c0.3-0.8,0.7-1.8,1.1-2.8c0.4-1,0.8-2,1.1-2.8h0.4l2.2,5.8c0,0.1,0.1,0.2,0.2,0.3
			c0.1,0.1,0.1,0.1,0.3,0.2c0.1,0,0.2,0.1,0.3,0.1c0.1,0,0.2,0,0.3,0V62.8z M97.9,60.1l-1-2.6l-1,2.6H97.9z"/>
	</g>
	<g>
		<path style="fill:#C2B59B;" d="M106.2,58h-0.3c0-0.1-0.1-0.2-0.2-0.4c-0.1-0.2-0.2-0.3-0.2-0.4c-0.1-0.1-0.2-0.3-0.3-0.4
			c-0.1-0.1-0.2-0.2-0.3-0.2c-0.1,0-0.2,0-0.4,0c-0.1,0-0.3,0-0.4,0h-0.3v5.4c0,0.1,0,0.2,0.1,0.3c0,0.1,0.1,0.2,0.2,0.2
			c0.1,0,0.2,0.1,0.4,0.1c0.2,0,0.3,0.1,0.4,0.1v0.3h-3.2v-0.3c0.1,0,0.2,0,0.4,0c0.2,0,0.3,0,0.4-0.1c0.1,0,0.2-0.1,0.2-0.2
			c0-0.1,0.1-0.2,0.1-0.3v-5.4h-0.3c-0.1,0-0.2,0-0.4,0c-0.1,0-0.3,0-0.4,0c-0.1,0-0.2,0.1-0.3,0.2c-0.1,0.1-0.2,0.2-0.3,0.4
			c-0.1,0.1-0.2,0.3-0.2,0.5c-0.1,0.2-0.1,0.3-0.2,0.4h-0.3v-1.8h5.8V58z"/>
	</g>
	<g>
		<path style="fill:#C2B59B;" d="M112.2,58h-0.3c0-0.1-0.1-0.2-0.2-0.4c-0.1-0.2-0.2-0.3-0.2-0.4c-0.1-0.1-0.2-0.3-0.3-0.4
			c-0.1-0.1-0.2-0.2-0.3-0.2c-0.1,0-0.2,0-0.4,0c-0.1,0-0.3,0-0.4,0h-0.3v5.4c0,0.1,0,0.2,0.1,0.3c0,0.1,0.1,0.2,0.2,0.2
			c0.1,0,0.2,0.1,0.4,0.1c0.2,0,0.3,0.1,0.4,0.1v0.3h-3.2v-0.3c0.1,0,0.2,0,0.4,0c0.2,0,0.3,0,0.4-0.1c0.1,0,0.2-0.1,0.2-0.2
			c0-0.1,0.1-0.2,0.1-0.3v-5.4h-0.3c-0.1,0-0.2,0-0.4,0c-0.1,0-0.3,0-0.4,0c-0.1,0-0.2,0.1-0.3,0.2c-0.1,0.1-0.2,0.2-0.3,0.4
			c-0.1,0.1-0.2,0.3-0.2,0.5c-0.1,0.2-0.1,0.3-0.2,0.4h-0.3v-1.8h5.8V58z"/>
	</g>
	<g>
		<path style="fill:#C2B59B;" d="M118.2,56.9c0.3,0.3,0.5,0.7,0.7,1.1c0.2,0.4,0.2,0.9,0.2,1.4c0,0.5-0.1,1-0.3,1.4
			c-0.2,0.4-0.4,0.8-0.7,1.1c-0.3,0.3-0.6,0.5-1,0.7c-0.4,0.2-0.8,0.2-1.2,0.2c-0.5,0-0.9-0.1-1.3-0.3c-0.4-0.2-0.7-0.4-1-0.7
			c-0.3-0.3-0.5-0.7-0.7-1.1c-0.2-0.4-0.2-0.9-0.2-1.4c0-0.5,0.1-1,0.3-1.5c0.2-0.4,0.4-0.8,0.7-1.1c0.3-0.3,0.6-0.5,1-0.7
			c0.4-0.2,0.8-0.2,1.2-0.2c0.4,0,0.9,0.1,1.3,0.2C117.5,56.4,117.9,56.6,118.2,56.9z M117.4,61.7c0.2-0.3,0.3-0.6,0.4-1
			c0.1-0.4,0.1-0.8,0.1-1.2c0-0.5,0-0.9-0.1-1.3c-0.1-0.4-0.2-0.7-0.4-1c-0.2-0.3-0.4-0.5-0.7-0.6c-0.3-0.1-0.6-0.2-0.9-0.2
			c-0.4,0-0.7,0.1-1,0.3c-0.3,0.2-0.5,0.4-0.6,0.7c-0.2,0.3-0.3,0.6-0.4,1c-0.1,0.4-0.1,0.8-0.1,1.2c0,0.5,0,0.9,0.1,1.2
			c0.1,0.4,0.2,0.7,0.4,1c0.2,0.3,0.4,0.5,0.6,0.6c0.3,0.2,0.6,0.2,0.9,0.2c0.3,0,0.6-0.1,0.9-0.2C117.1,62.2,117.3,62,117.4,61.7z"
			/>
	</g>
	<g>
		<path style="fill:#C2B59B;" d="M126.5,62.8h-1.8c-0.4-0.6-0.8-1.2-1.1-1.6c-0.3-0.5-0.7-0.9-1-1.4h-0.7v2.1c0,0.1,0,0.2,0.1,0.3
			c0,0.1,0.1,0.1,0.2,0.2c0.1,0,0.2,0,0.3,0.1c0.1,0,0.3,0,0.4,0v0.3h-2.8v-0.3c0.1,0,0.2,0,0.3,0c0.1,0,0.2,0,0.3-0.1
			c0.1,0,0.2-0.1,0.2-0.2c0-0.1,0.1-0.2,0.1-0.3v-4.8c0-0.1,0-0.2,0-0.3c0-0.1-0.1-0.1-0.2-0.2c-0.1,0-0.2-0.1-0.3-0.1
			c-0.1,0-0.2,0-0.3,0v-0.3h3.1c0.3,0,0.5,0,0.8,0.1s0.5,0.2,0.7,0.3c0.2,0.1,0.4,0.3,0.5,0.5c0.1,0.2,0.2,0.4,0.2,0.7
			c0,0.3,0,0.5-0.1,0.7c-0.1,0.2-0.2,0.4-0.3,0.5c-0.1,0.1-0.3,0.3-0.5,0.4c-0.2,0.1-0.4,0.2-0.7,0.3c0.3,0.4,0.6,0.8,0.8,1.1
			c0.2,0.3,0.5,0.7,0.8,1.1c0.1,0.2,0.3,0.3,0.4,0.4c0.1,0.1,0.2,0.2,0.3,0.2c0.1,0,0.2,0.1,0.3,0.1c0.1,0,0.2,0,0.3,0V62.8z
			 M124,57.9c0-0.4-0.1-0.7-0.3-1c-0.2-0.2-0.6-0.4-1-0.4h-0.8v2.9h0.6c0.4,0,0.8-0.1,1.1-0.4C123.8,58.7,124,58.3,124,57.9z"/>
	</g>
	<g>
		<path style="fill:#C2B59B;" d="M133.6,56.5c-0.1,0-0.2,0-0.4,0.1c-0.2,0-0.3,0.1-0.4,0.1c-0.1,0.1-0.2,0.2-0.2,0.5
			c0,0.2-0.1,0.5-0.1,0.8v4.9h-0.4l-4.1-5.5v3.5c0,0.4,0,0.7,0.1,0.9c0,0.2,0.1,0.4,0.2,0.4c0.1,0.1,0.2,0.1,0.4,0.2
			c0.2,0.1,0.4,0.1,0.4,0.1v0.3h-2.7v-0.3c0.1,0,0.2,0,0.4-0.1c0.2-0.1,0.3-0.1,0.4-0.1c0.1-0.1,0.2-0.2,0.2-0.4
			c0-0.2,0.1-0.5,0.1-0.9v-3.3c0-0.1,0-0.3-0.1-0.4c-0.1-0.1-0.1-0.3-0.2-0.3c-0.1-0.1-0.3-0.2-0.5-0.3c-0.2-0.1-0.3-0.1-0.5-0.1
			v-0.3h1.9l3.8,5.1v-3.2c0-0.4,0-0.7-0.1-0.9c-0.1-0.2-0.1-0.3-0.2-0.4c-0.1-0.1-0.2-0.1-0.4-0.2c-0.2-0.1-0.4-0.1-0.5-0.1v-0.3
			h2.7V56.5z"/>
	</g>
	<g>
		<path style="fill:#C2B59B;" d="M139.7,60.9l-0.1,2h-5.6v-0.3c0.1,0,0.2,0,0.4,0c0.2,0,0.3,0,0.3-0.1c0.1,0,0.2-0.1,0.2-0.2
			c0-0.1,0.1-0.2,0.1-0.3v-4.8c0-0.1,0-0.2-0.1-0.3c0-0.1-0.1-0.1-0.2-0.2c-0.1,0-0.2-0.1-0.3-0.1c-0.1,0-0.3-0.1-0.3-0.1v-0.3h5.2
			v1.6h-0.4c-0.1-0.2-0.2-0.5-0.4-0.8c-0.2-0.3-0.4-0.4-0.6-0.4c-0.1,0-0.2,0-0.3,0c-0.1,0-0.3,0-0.5,0H136v2.7h0.8
			c0.2,0,0.4,0,0.5-0.1c0.1,0,0.2-0.1,0.3-0.2c0.1-0.1,0.1-0.2,0.2-0.4c0-0.2,0.1-0.3,0.1-0.4h0.4v2.6h-0.4c0-0.2,0-0.3-0.1-0.5
			s-0.1-0.3-0.2-0.4c-0.1-0.1-0.2-0.2-0.3-0.2c-0.1,0-0.3-0.1-0.5-0.1H136v2c0,0.2,0,0.4,0,0.5c0,0.1,0.1,0.2,0.2,0.3
			c0.1,0.1,0.2,0.1,0.3,0.1c0.1,0,0.3,0,0.6,0c0.1,0,0.2,0,0.4,0s0.3,0,0.4,0c0.1,0,0.2,0,0.4-0.1c0.1,0,0.2-0.1,0.3-0.1
			c0.1-0.2,0.3-0.4,0.5-0.7c0.2-0.3,0.3-0.5,0.3-0.7H139.7z"/>
	</g>
	<g>
		<path style="fill:#C2B59B;" d="M146.2,56.5c-0.1,0-0.1,0-0.3,0.1c-0.1,0-0.2,0.1-0.2,0.1c-0.1,0.1-0.2,0.1-0.3,0.2
			c0,0-0.1,0.1-0.3,0.3c-0.2,0.3-0.5,0.7-0.7,1.1c-0.2,0.4-0.5,0.8-0.8,1.4c-0.1,0.2-0.2,0.4-0.2,0.5c0,0.1-0.1,0.3-0.1,0.5v1.3
			c0,0.1,0,0.2,0.1,0.3c0,0.1,0.1,0.2,0.2,0.2c0.1,0,0.2,0.1,0.4,0.1c0.2,0,0.3,0.1,0.4,0.1v0.3h-3.1v-0.3c0.1,0,0.2,0,0.4,0
			c0.2,0,0.3,0,0.4-0.1c0.1,0,0.2-0.1,0.2-0.2c0-0.1,0.1-0.2,0.1-0.3v-1.6c0-0.1,0-0.1-0.1-0.3c-0.1-0.1-0.1-0.3-0.2-0.4
			c-0.2-0.4-0.4-0.8-0.6-1.2c-0.2-0.4-0.4-0.8-0.6-1.1c-0.1-0.2-0.2-0.3-0.3-0.4c-0.1-0.1-0.2-0.2-0.3-0.2c-0.1,0-0.2-0.1-0.3-0.1
			c-0.1,0-0.2,0-0.3,0v-0.3h2.9v0.3c-0.3,0-0.5,0-0.7,0.1s-0.2,0.1-0.2,0.2c0,0,0,0.1,0,0.1c0,0,0,0.1,0.1,0.2
			c0,0.1,0.1,0.2,0.1,0.3c0.1,0.1,0.1,0.2,0.2,0.3c0.1,0.3,0.3,0.6,0.5,0.8c0.2,0.3,0.4,0.6,0.6,1.1c0.5-0.8,0.9-1.4,1.1-1.9
			c0.3-0.4,0.4-0.7,0.4-0.8c0-0.1,0-0.1-0.1-0.2c-0.1,0-0.1-0.1-0.2-0.1c-0.1,0-0.2,0-0.3,0c-0.1,0-0.2,0-0.3,0v-0.3h2.3V56.5z"/>
	</g>
	<g>
		<path style="fill:#C2B59B;" d="M150.5,59.8c0.1,0.2,0.2,0.3,0.3,0.5c0.1,0.2,0.1,0.4,0.1,0.7c0,0.6-0.2,1.1-0.7,1.5
			c-0.4,0.4-1,0.6-1.6,0.6c-0.3,0-0.6,0-0.9-0.1c-0.3-0.1-0.6-0.2-0.8-0.3l-0.2,0.3h-0.4l-0.1-2.3h0.4c0.1,0.3,0.2,0.5,0.3,0.8
			c0.1,0.2,0.2,0.4,0.4,0.6c0.2,0.2,0.4,0.3,0.6,0.4c0.2,0.1,0.5,0.2,0.8,0.2c0.2,0,0.4,0,0.6-0.1c0.2-0.1,0.3-0.1,0.4-0.2
			c0.1-0.1,0.2-0.2,0.2-0.4c0-0.1,0.1-0.3,0.1-0.5c0-0.3-0.1-0.5-0.2-0.7c-0.2-0.2-0.4-0.4-0.7-0.5c-0.2-0.1-0.4-0.2-0.7-0.3
			c-0.3-0.1-0.5-0.2-0.7-0.3c-0.4-0.2-0.7-0.4-0.9-0.7c-0.2-0.3-0.3-0.6-0.3-1.1c0-0.3,0.1-0.5,0.2-0.7c0.1-0.2,0.3-0.4,0.4-0.6
			c0.2-0.2,0.4-0.3,0.6-0.4c0.2-0.1,0.5-0.1,0.8-0.1c0.3,0,0.6,0,0.8,0.1c0.2,0.1,0.5,0.2,0.7,0.3l0.2-0.3h0.4l0,2.2h-0.4
			c-0.1-0.3-0.1-0.5-0.2-0.7c-0.1-0.2-0.2-0.4-0.3-0.6c-0.1-0.2-0.3-0.3-0.5-0.4c-0.2-0.1-0.4-0.2-0.7-0.2c-0.3,0-0.6,0.1-0.8,0.3
			c-0.2,0.2-0.3,0.4-0.3,0.7c0,0.3,0.1,0.5,0.2,0.7c0.1,0.2,0.3,0.3,0.6,0.5c0.2,0.1,0.5,0.2,0.7,0.3c0.2,0.1,0.4,0.2,0.6,0.3
			c0.2,0.1,0.4,0.2,0.5,0.3C150.3,59.5,150.4,59.6,150.5,59.8z"/>
	</g>
	<g>
		<path style="fill:#C2B59B;" d="M160.4,62.8h-2.8v-0.3c0.2,0,0.4,0,0.6-0.1c0.2,0,0.2-0.1,0.2-0.2c0,0,0-0.1,0-0.1c0,0,0-0.1,0-0.1
			l-0.6-1.5h-2.3c-0.1,0.2-0.2,0.4-0.2,0.6c-0.1,0.2-0.1,0.3-0.1,0.5c0,0.1-0.1,0.2-0.1,0.3c0,0.1,0,0.2,0,0.2
			c0,0.1,0.1,0.2,0.3,0.3c0.2,0.1,0.4,0.1,0.7,0.1v0.3h-2.5v-0.3c0.1,0,0.2,0,0.3-0.1c0.1,0,0.2-0.1,0.3-0.1
			c0.1-0.1,0.2-0.2,0.3-0.3c0.1-0.1,0.1-0.2,0.2-0.4c0.3-0.8,0.7-1.8,1.1-2.8c0.4-1,0.8-2,1.1-2.8h0.4l2.2,5.8
			c0,0.1,0.1,0.2,0.2,0.3c0.1,0.1,0.1,0.1,0.2,0.2c0.1,0,0.2,0.1,0.3,0.1c0.1,0,0.2,0,0.3,0V62.8z M157.7,60.1l-1-2.6l-1,2.6H157.7z
			"/>
	</g>
	<g>
		<path style="fill:#C2B59B;" d="M166,58h-0.3c0-0.1-0.1-0.2-0.2-0.4c-0.1-0.2-0.2-0.3-0.2-0.4c-0.1-0.1-0.2-0.3-0.3-0.4
			c-0.1-0.1-0.2-0.2-0.3-0.2c-0.1,0-0.2,0-0.4,0c-0.1,0-0.3,0-0.4,0h-0.3v5.4c0,0.1,0,0.2,0.1,0.3c0,0.1,0.1,0.2,0.2,0.2
			c0.1,0,0.2,0.1,0.4,0.1c0.2,0,0.3,0.1,0.4,0.1v0.3h-3.2v-0.3c0.1,0,0.2,0,0.4,0c0.2,0,0.3,0,0.4-0.1c0.1,0,0.2-0.1,0.2-0.2
			c0-0.1,0.1-0.2,0.1-0.3v-5.4h-0.3c-0.1,0-0.2,0-0.4,0c-0.1,0-0.3,0-0.4,0c-0.1,0-0.2,0.1-0.3,0.2c-0.1,0.1-0.2,0.2-0.3,0.4
			c-0.1,0.1-0.2,0.3-0.2,0.5c-0.1,0.2-0.1,0.3-0.2,0.4h-0.3v-1.8h5.8V58z"/>
	</g>
	<g>
		<path style="fill:#C2B59B;" d="M174.3,60.8l-0.1,2h-5.2v-0.3c0.1,0,0.2,0,0.3,0c0.1,0,0.2,0,0.3-0.1c0.1,0,0.2-0.1,0.2-0.2
			c0-0.1,0.1-0.2,0.1-0.3v-4.8c0-0.1,0-0.2-0.1-0.3c0-0.1-0.1-0.1-0.2-0.2c-0.1,0-0.2-0.1-0.3-0.1c-0.1,0-0.2-0.1-0.3-0.1v-0.3h2.8
			v0.3c-0.1,0-0.2,0-0.3,0c-0.1,0-0.2,0.1-0.3,0.1c-0.1,0-0.2,0.1-0.2,0.2c0,0.1-0.1,0.2-0.1,0.3v4.5c0,0.2,0,0.4,0,0.5
			c0,0.1,0.1,0.2,0.1,0.3c0.1,0.1,0.2,0.1,0.3,0.1c0.1,0,0.3,0,0.6,0c0.1,0,0.2,0,0.4,0c0.1,0,0.2,0,0.4,0c0.1,0,0.2,0,0.3-0.1
			c0.1,0,0.2-0.1,0.2-0.1c0.1-0.1,0.3-0.4,0.5-0.7c0.2-0.3,0.3-0.5,0.4-0.7H174.3z"/>
	</g>
	<g>
		<path style="fill:#C2B59B;" d="M181,62.8h-2.8v-0.3c0.2,0,0.4,0,0.6-0.1c0.2,0,0.2-0.1,0.2-0.2c0,0,0-0.1,0-0.1c0,0,0-0.1,0-0.1
			l-0.6-1.5h-2.3c-0.1,0.2-0.2,0.4-0.2,0.6c-0.1,0.2-0.1,0.3-0.1,0.5c0,0.1-0.1,0.2-0.1,0.3c0,0.1,0,0.2,0,0.2
			c0,0.1,0.1,0.2,0.3,0.3c0.2,0.1,0.4,0.1,0.7,0.1v0.3h-2.5v-0.3c0.1,0,0.2,0,0.3-0.1c0.1,0,0.2-0.1,0.3-0.1
			c0.1-0.1,0.2-0.2,0.3-0.3c0.1-0.1,0.1-0.2,0.2-0.4c0.3-0.8,0.7-1.8,1.1-2.8c0.4-1,0.8-2,1.1-2.8h0.4l2.2,5.8
			c0,0.1,0.1,0.2,0.2,0.3c0.1,0.1,0.1,0.1,0.2,0.2c0.1,0,0.2,0.1,0.3,0.1c0.1,0,0.2,0,0.3,0V62.8z M178.3,60.1l-1-2.6l-1,2.6H178.3z
			"/>
	</g>
	<g>
		<path style="fill:#C2B59B;" d="M190.3,56.5c-0.1,0-0.2,0-0.3,0.1c-0.1,0-0.2,0.1-0.3,0.1c-0.1,0.1-0.2,0.1-0.3,0.2
			c-0.1,0.1-0.1,0.2-0.2,0.4c-0.2,0.7-0.5,1.6-0.8,2.5c-0.3,1-0.6,2-1,3.1h-0.4l-1.7-5.2l-1.8,5.2h-0.4c-0.3-1.1-0.6-2.2-1-3.4
			c-0.3-1.2-0.6-2-0.7-2.4c0-0.1-0.1-0.2-0.1-0.3c-0.1-0.1-0.1-0.1-0.2-0.2c-0.1-0.1-0.2-0.1-0.3-0.1c-0.1,0-0.2,0-0.3,0v-0.3h2.7
			v0.3c-0.2,0-0.4,0-0.6,0.1c-0.2,0-0.3,0.1-0.3,0.2c0,0,0,0.1,0,0.1c0,0.1,0,0.1,0,0.1c0.1,0.3,0.2,0.7,0.4,1.4
			c0.2,0.6,0.5,1.6,0.8,2.9l1.7-5h0.5l1.7,5.1c0.2-0.8,0.4-1.5,0.6-2c0.2-0.6,0.3-1.1,0.4-1.5c0.1-0.3,0.1-0.5,0.1-0.6
			c0-0.1,0-0.2,0-0.3c0-0.1-0.1-0.2-0.2-0.3s-0.4-0.1-0.7-0.1v-0.3h2.4V56.5z"/>
	</g>
</g>
<g>
	<g>
		<path style="fill:#C2B59B;" d="M254.5,8.8c-0.5,0-1.1,0.2-1.6,0.3c-0.6,0.2-1,0.4-1.3,0.8c-0.2,0.2-0.4,0.5-0.6,1
			c-0.2,0.4-0.4,0.9-0.7,1.5c-0.3,0.6-0.6,1.2-0.8,1.7c-0.3,0.6-0.7,1.1-1.1,1.7c0.4,0.4,0.8,0.9,1.4,1.4c0.5,0.5,1,0.9,1.4,1.1
			c0.4,0.2,0.9,0.4,1.6,0.5c0.7,0.1,1.2,0.2,1.7,0.2v1h-5.7l-2.1-2.3c-0.3,0.3-0.7,0.7-1,1c-0.4,0.4-0.8,0.7-1.2,0.9
			c-0.5,0.3-1,0.5-1.4,0.6c-0.5,0.2-1.1,0.2-1.7,0.2c-0.7,0-1.4-0.1-2-0.3c-0.7-0.2-1.3-0.5-1.8-0.9c-0.5-0.4-1-1-1.3-1.6
			c-0.3-0.7-0.5-1.5-0.5-2.4c0-1.1,0.3-2.2,0.9-3.1c0.6-0.9,1.7-1.9,3.4-2.9c-0.7-1-1.3-1.8-1.7-2.6c-0.4-0.7-0.6-1.5-0.6-2.4
			c0-0.6,0.1-1.2,0.4-1.7c0.3-0.5,0.6-1,1.1-1.4c0.4-0.4,0.9-0.6,1.5-0.8c0.6-0.2,1.2-0.3,1.9-0.3c0.7,0,1.4,0.1,1.9,0.4
			c0.6,0.2,1,0.5,1.4,0.9c0.3,0.3,0.6,0.8,0.7,1.2c0.2,0.5,0.3,0.9,0.3,1.4c0,1.1-0.3,2.1-1,2.9c-0.7,0.8-1.6,1.5-2.8,2.1
			c0.9,1.2,1.7,2.2,2.5,3.2c0.8,1,1.6,1.9,2.4,2.8c0.6-1,1.1-1.9,1.4-2.8c0.3-0.9,0.5-1.6,0.5-2.3c0-0.3-0.2-0.5-0.6-0.7
			c-0.4-0.2-1-0.3-1.8-0.5v-1h7.4V8.8z M245.8,17.1c-0.9-1.1-1.8-2.3-2.9-3.6c-1.1-1.3-1.9-2.4-2.6-3.3c-0.7,0.5-1.3,1.1-1.6,1.8
			c-0.3,0.7-0.5,1.5-0.5,2.4c0,1.3,0.4,2.3,1.1,3.1c0.7,0.8,1.7,1.2,2.9,1.2c0.7,0,1.3-0.1,2-0.4C244.8,18.1,245.4,17.7,245.8,17.1z
			 M244.7,4.4c0-0.9-0.2-1.7-0.6-2.2c-0.4-0.5-1-0.8-1.8-0.8c-0.4,0-0.8,0.1-1.1,0.3c-0.3,0.2-0.5,0.4-0.7,0.7
			c-0.2,0.3-0.3,0.5-0.4,0.8C240,3.5,240,3.8,240,4c0,0.6,0.2,1.3,0.5,1.9c0.3,0.6,0.8,1.4,1.5,2.4c0.9-0.5,1.6-1.1,2-1.7
			C244.5,5.9,244.7,5.2,244.7,4.4z"/>
	</g>
</g>
<g>
	<g>
		<polygon style="fill:#4C3820;" points="62.5,38.3 49.1,38.3 49.1,32.7 62.5,32.7 62.5,24.1 49.1,24.1 49.1,18.4 62.5,18.4 
			62.5,11.4 48,11.4 48,8.9 34.9,8.9 34.9,7.7 35.5,7.7 35.5,6.5 36.8,5.1 23.5,1.3 10.2,5.1 11.5,6.5 11.5,7.7 12.1,7.7 12.1,8.9 
			0,8.9 0,35.9 13.5,35.9 13.5,40.6 23.5,40.6 48.7,40.6 62.5,40.6 		"/>
	</g>
</g>
<g>
	<g>
		<rect x="13.9" y="8.9" style="fill:#E6E7E8;" width="19.2" height="31.7"/>
	</g>
</g>
<g>
	<g>
		<rect x="39.6" y="15" style="fill:#E6E7E8;" width="8.4" height="20.3"/>
	</g>
</g>
<g>
	<g>
		<polygon style="fill:#E6E7E8;" points="49.1,20.2 49.1,19.8 62.5,19.8 62.5,18.4 49.1,18.4 49.1,24.1 62.5,24.1 62.5,20.2 		"/>
	</g>
</g>
<g>
	<g>
		<polygon style="fill:#E6E7E8;" points="49.1,34.5 49.1,34.1 62.5,34.1 62.5,32.7 49.1,32.7 49.1,38.3 62.5,38.3 62.5,34.5 		"/>
	</g>
</g>
<g>
	<g>
		<rect x="41.6" y="15" style="fill:#414042;" width="0.3" height="20.3"/>
	</g>
</g>
<g>
	<g>
		<rect x="46" y="15" style="fill:#414042;" width="0.3" height="20.3"/>
	</g>
</g>
<g>
	<g>
		<rect x="47.1" y="15" style="fill:#414042;" width="0.3" height="20.3"/>
	</g>
</g>
<g>
	<g>
		<rect x="39.6" y="20.2" style="fill:#414042;" width="8.4" height="0.4"/>
	</g>
</g>
<g>
	<g>
		<rect x="39.6" y="29" style="fill:#414042;" width="8.4" height="0.4"/>
	</g>
</g>
<g>
	<g>
		<rect x="33.5" y="35.9" style="fill:#C2B59B;" width="15.2" height="4.7"/>
	</g>
</g>
<g>
	<g>
		<polygon style="fill:#C2B59B;" points="10.2,5.1 23.5,5.1 36.8,5.1 23.5,1.3 		"/>
	</g>
</g>
<g>
	<g>
		<rect x="11.5" y="6.5" style="fill:#C2B59B;" width="24" height="1.2"/>
	</g>
</g>
<g>
	<g>
		<rect x="20.4" y="32.9" width="6.1" height="7.7"/>
	</g>
</g>
<g>
	<g>
		<rect x="23.3" y="8.9" style="fill:#414042;" width="0.3" height="31.7"/>
	</g>
</g>
<g>
	<g>
		<rect x="20.2" y="8.9" style="fill:#414042;" width="0.3" height="31.7"/>
	</g>
</g>
<g>
	<g>
		<rect x="26.5" y="8.9" style="fill:#414042;" width="0.3" height="31.7"/>
	</g>
</g>
<g>
	<g>
		<rect x="28.8" y="8.9" style="fill:#414042;" width="0.3" height="31.7"/>
	</g>
</g>
<g>
	<g>
		<rect x="30.9" y="8.9" style="fill:#414042;" width="0.3" height="31.7"/>
	</g>
</g>
<g>
	<g>
		<rect x="17.7" y="8.9" style="fill:#414042;" width="0.3" height="31.7"/>
	</g>
</g>
<g>
	<g>
		<rect x="15.5" y="8.9" style="fill:#414042;" width="0.3" height="31.7"/>
	</g>
</g>
<g>
	<g>
		<rect x="13.9" y="32.6" style="fill:#414042;" width="19.2" height="0.4"/>
	</g>
</g>
<g>
	<g>
		<rect x="13.9" y="21.1" style="fill:#414042;" width="19.2" height="0.4"/>
	</g>
</g>
<g>
	<g>
		<rect x="13.9" y="15.4" style="fill:#414042;" width="19.2" height="0.4"/>
	</g>
</g>
<g>
	<g>
		<rect x="55.2" y="18.4" style="fill:#414042;" width="0.3" height="5.8"/>
	</g>
</g>
<g>
	<g>
		<rect x="55.2" y="32.6" style="fill:#414042;" width="0.3" height="5.8"/>
	</g>
</g>
<g>
	<g>
		<g>
			<path style="fill:#414042;" d="M26.3,36.9h-5.6v-0.2h5.6V36.9z M20.8,36.8h5.4v0L20.8,36.8L20.8,36.8z"/>
		</g>
	</g>
</g>
<g>
	<g>
		<rect x="48.7" y="40.6" style="fill:#C2B59B;" width="13.8" height="3.9"/>
	</g>
</g>
<g>
	<g>
		<rect y="35.9" style="fill:#C2B59B;" width="13.5" height="4.7"/>
	</g>
</g>
<g>
	<g>
		<polygon style="fill:#4C3820;" points="13.5,40.6 0,40.6 0,44.5 59,44.5 48.7,40.6 23.5,40.6 		"/>
	</g>
</g>
<g>
	<g>
		<rect x="49.1" y="19.8" style="fill:#414042;" width="13.4" height="0.4"/>
	</g>
</g>
<g>
	<g>
		<rect x="49.1" y="34.1" style="fill:#414042;" width="13.4" height="0.4"/>
	</g>
</g>
<g>
	<g>
		<rect x="3.8" y="29.4" style="fill:#C2B59B;" width="6" height="3.2"/>
	</g>
</g>
<g>
	<g>
		<g>
			<path style="fill:#4C3820;" d="M4.9,30.2v1.6H4.4v-1.1c-0.1,0.1-0.1,0.1-0.2,0.1C4.1,31,4.1,31,4,31v-0.4c0.2,0,0.3-0.1,0.4-0.2
				c0.1-0.1,0.2-0.2,0.2-0.3H4.9z"/>
		</g>
	</g>
</g>
<g>
	<g>
		<g>
			<path style="fill:#4C3820;" d="M5.8,30.7l-0.4-0.1c0-0.1,0.1-0.2,0.2-0.3c0.1-0.1,0.2-0.1,0.4-0.1c0.2,0,0.4,0,0.5,0.1
				c0.1,0.1,0.1,0.2,0.1,0.3c0,0.1,0,0.1-0.1,0.2c0,0.1-0.1,0.1-0.2,0.1c0.1,0,0.1,0,0.1,0.1c0.1,0,0.1,0.1,0.1,0.1
				c0,0.1,0,0.1,0,0.2c0,0.1,0,0.2-0.1,0.3c0,0.1-0.1,0.2-0.2,0.2c-0.1,0-0.2,0.1-0.4,0.1c-0.1,0-0.3,0-0.3-0.1
				c-0.1,0-0.2-0.1-0.2-0.2c-0.1-0.1-0.1-0.2-0.1-0.3l0.4-0.1c0,0.1,0,0.2,0.1,0.2c0,0,0.1,0.1,0.1,0.1c0.1,0,0.1,0,0.2-0.1
				c0,0,0.1-0.1,0.1-0.2c0-0.1,0-0.1-0.1-0.2c0,0-0.1-0.1-0.2-0.1c0,0-0.1,0-0.1,0l0-0.3c0,0,0,0,0.1,0c0.1,0,0.1,0,0.1-0.1
				c0,0,0.1-0.1,0.1-0.1c0,0,0-0.1,0-0.1c0,0-0.1,0-0.1,0c-0.1,0-0.1,0-0.1,0C5.8,30.6,5.8,30.7,5.8,30.7z"/>
		</g>
	</g>
</g>
<g>
	<g>
		<g>
			<path style="fill:#4C3820;" d="M6.9,31.1c0-0.3,0.1-0.5,0.2-0.6c0.1-0.1,0.3-0.2,0.5-0.2c0.1,0,0.2,0,0.3,0
				c0.1,0,0.1,0.1,0.2,0.1c0,0,0.1,0.1,0.1,0.1c0,0,0,0.1,0.1,0.2c0,0.1,0,0.2,0,0.4c0,0.3,0,0.5-0.1,0.6c-0.1,0.1-0.3,0.2-0.5,0.2
				c-0.1,0-0.2,0-0.3-0.1c-0.1,0-0.2-0.1-0.2-0.2c0-0.1-0.1-0.1-0.1-0.2C6.9,31.3,6.9,31.2,6.9,31.1z M7.3,31.1c0,0.2,0,0.3,0.1,0.4
				c0,0.1,0.1,0.1,0.2,0.1c0,0,0.1,0,0.1,0c0,0,0.1-0.1,0.1-0.2c0-0.1,0-0.2,0-0.3c0-0.2,0-0.4-0.1-0.4c0-0.1-0.1-0.1-0.2-0.1
				c-0.1,0-0.1,0-0.2,0.1C7.3,30.7,7.3,30.9,7.3,31.1z"/>
		</g>
	</g>
</g>
<g>
	<g>
		<g>
			<path style="fill:#4C3820;" d="M9.4,30.2v1.6H8.9v-1.1c-0.1,0.1-0.1,0.1-0.2,0.1C8.7,31,8.6,31,8.5,31v-0.4
				c0.2,0,0.3-0.1,0.4-0.2C8.9,30.4,9,30.3,9,30.2H9.4z"/>
		</g>
	</g>
</g>
<line style="fill:none;stroke:#C2B59B;stroke-width:1.005;stroke-miterlimit:10;" x1="0.6" y1="50.7" x2="256.5" y2="50.7"/>
</svg>
